<mxfile host="app.diagrams.net" modified="2021-04-27T12:26:17.870Z" agent="5.0 (Windows NT 10.0; Win64; x64) AppleWebKit/537.36 (KHTML, like Gecko) Chrome/90.0.4430.85 Safari/537.36" etag="jTwKZQam7lLx5G6o1Glj" version="14.6.6" type="github">
  <diagram id="odyKlWlST1pByMnwSUlX" name="Page-1">
    <mxGraphModel dx="1038" dy="580" grid="1" gridSize="10" guides="1" tooltips="1" connect="1" arrows="1" fold="1" page="1" pageScale="1" pageWidth="850" pageHeight="1100" math="0" shadow="0">
      <root>
        <mxCell id="0" />
        <mxCell id="1" parent="0" />
        <mxCell id="B4BlVv6zM83etMITKogT-1" value="&lt;font style=&quot;font-size: 22px&quot;&gt;&lt;b&gt;x&lt;sub&gt;1&lt;/sub&gt;&lt;/b&gt;&lt;/font&gt;" style="ellipse;whiteSpace=wrap;html=1;aspect=fixed;" vertex="1" parent="1">
          <mxGeometry x="70" y="140" width="40" height="40" as="geometry" />
        </mxCell>
        <mxCell id="B4BlVv6zM83etMITKogT-2" value="&lt;font style=&quot;font-size: 22px&quot;&gt;&lt;b&gt;x&lt;sub&gt;2&lt;/sub&gt;&lt;/b&gt;&lt;/font&gt;" style="ellipse;whiteSpace=wrap;html=1;aspect=fixed;" vertex="1" parent="1">
          <mxGeometry x="160" y="140" width="40" height="40" as="geometry" />
        </mxCell>
        <mxCell id="B4BlVv6zM83etMITKogT-3" value="&lt;font style=&quot;font-size: 22px&quot;&gt;&lt;b&gt;x&lt;sub&gt;3&lt;/sub&gt;&lt;/b&gt;&lt;/font&gt;" style="ellipse;whiteSpace=wrap;html=1;aspect=fixed;" vertex="1" parent="1">
          <mxGeometry x="250" y="140" width="40" height="40" as="geometry" />
        </mxCell>
        <mxCell id="B4BlVv6zM83etMITKogT-4" value="&lt;font style=&quot;font-size: 22px&quot;&gt;&lt;b&gt;x&lt;sub&gt;4&lt;/sub&gt;&lt;/b&gt;&lt;/font&gt;" style="ellipse;whiteSpace=wrap;html=1;aspect=fixed;" vertex="1" parent="1">
          <mxGeometry x="70" y="210" width="40" height="40" as="geometry" />
        </mxCell>
        <mxCell id="B4BlVv6zM83etMITKogT-5" value="&lt;font style=&quot;font-size: 22px&quot;&gt;&lt;b&gt;x&lt;sub&gt;6&lt;/sub&gt;&lt;/b&gt;&lt;/font&gt;" style="ellipse;whiteSpace=wrap;html=1;aspect=fixed;" vertex="1" parent="1">
          <mxGeometry x="250" y="210" width="40" height="40" as="geometry" />
        </mxCell>
        <mxCell id="B4BlVv6zM83etMITKogT-6" value="&lt;font style=&quot;font-size: 22px&quot;&gt;&lt;b&gt;x&lt;sub&gt;5&lt;/sub&gt;&lt;/b&gt;&lt;/font&gt;" style="ellipse;whiteSpace=wrap;html=1;aspect=fixed;" vertex="1" parent="1">
          <mxGeometry x="160" y="210" width="40" height="40" as="geometry" />
        </mxCell>
        <mxCell id="B4BlVv6zM83etMITKogT-8" value="&lt;font style=&quot;font-size: 22px&quot;&gt;&lt;b&gt;x&lt;sub&gt;9&lt;/sub&gt;&lt;/b&gt;&lt;/font&gt;" style="ellipse;whiteSpace=wrap;html=1;aspect=fixed;" vertex="1" parent="1">
          <mxGeometry x="250" y="280" width="40" height="40" as="geometry" />
        </mxCell>
        <mxCell id="B4BlVv6zM83etMITKogT-9" value="&lt;font style=&quot;font-size: 22px&quot;&gt;&lt;b&gt;x&lt;sub&gt;8&lt;/sub&gt;&lt;/b&gt;&lt;/font&gt;" style="ellipse;whiteSpace=wrap;html=1;aspect=fixed;" vertex="1" parent="1">
          <mxGeometry x="160" y="280" width="40" height="40" as="geometry" />
        </mxCell>
        <mxCell id="B4BlVv6zM83etMITKogT-10" value="&lt;font style=&quot;font-size: 22px&quot;&gt;&lt;b&gt;x&lt;sub&gt;7&lt;/sub&gt;&lt;/b&gt;&lt;/font&gt;" style="ellipse;whiteSpace=wrap;html=1;aspect=fixed;" vertex="1" parent="1">
          <mxGeometry x="70" y="280" width="40" height="40" as="geometry" />
        </mxCell>
        <mxCell id="B4BlVv6zM83etMITKogT-11" value="" style="rounded=0;whiteSpace=wrap;html=1;fillOpacity=40;fillColor=#e1d5e7;strokeColor=#9673a6;" vertex="1" parent="1">
          <mxGeometry x="150" y="200" width="170" height="170" as="geometry" />
        </mxCell>
        <mxCell id="B4BlVv6zM83etMITKogT-12" value="" style="shape=corner;whiteSpace=wrap;html=1;fillColor=#ffe6cc;fillOpacity=40;dx=60;dy=60;strokeColor=#d79b00;" vertex="1" parent="1">
          <mxGeometry x="60" y="200" width="240" height="170" as="geometry" />
        </mxCell>
        <mxCell id="B4BlVv6zM83etMITKogT-13" value="" style="rounded=0;whiteSpace=wrap;html=1;fillColor=#d5e8d4;fillOpacity=40;strokeColor=#82b366;" vertex="1" parent="1">
          <mxGeometry x="10" y="120" width="310" height="70" as="geometry" />
        </mxCell>
        <mxCell id="B4BlVv6zM83etMITKogT-15" value="" style="rounded=0;whiteSpace=wrap;html=1;fillColor=#f8cecc;direction=south;fillOpacity=60;strokeColor=#b85450;" vertex="1" parent="1">
          <mxGeometry x="60" y="50" width="60" height="210" as="geometry" />
        </mxCell>
        <mxCell id="B4BlVv6zM83etMITKogT-16" value="&lt;font style=&quot;font-size: 18px&quot;&gt;&lt;b&gt;P&lt;sub&gt;1&lt;/sub&gt;&lt;/b&gt;&lt;/font&gt;&lt;br&gt;Cost c&lt;sub&gt;1&lt;/sub&gt;" style="text;html=1;strokeColor=none;fillColor=none;align=center;verticalAlign=middle;whiteSpace=wrap;rounded=0;" vertex="1" parent="1">
          <mxGeometry x="15" y="145" width="45" height="20" as="geometry" />
        </mxCell>
        <mxCell id="B4BlVv6zM83etMITKogT-17" value="&lt;font style=&quot;color: rgb(0 , 0 , 0) ; font-family: &amp;#34;helvetica&amp;#34; ; font-style: normal ; font-weight: 400 ; letter-spacing: normal ; text-indent: 0px ; text-transform: none ; word-spacing: 0px ; font-size: 18px&quot;&gt;&lt;b&gt;P&lt;sub&gt;2&lt;/sub&gt;&lt;/b&gt;&lt;/font&gt;&lt;br style=&quot;color: rgb(0 , 0 , 0) ; font-family: &amp;#34;helvetica&amp;#34; ; font-size: 12px ; font-style: normal ; font-weight: 400 ; letter-spacing: normal ; text-indent: 0px ; text-transform: none ; word-spacing: 0px&quot;&gt;&lt;span style=&quot;color: rgb(0 , 0 , 0) ; font-family: &amp;#34;helvetica&amp;#34; ; font-size: 12px ; font-style: normal ; font-weight: 400 ; letter-spacing: normal ; text-indent: 0px ; text-transform: none ; word-spacing: 0px ; display: inline ; float: none&quot;&gt;Cost c&lt;/span&gt;&lt;sub style=&quot;color: rgb(0 , 0 , 0) ; font-family: &amp;#34;helvetica&amp;#34; ; font-style: normal ; font-weight: 400 ; letter-spacing: normal ; text-indent: 0px ; text-transform: none ; word-spacing: 0px&quot;&gt;2&lt;/sub&gt;" style="text;whiteSpace=wrap;html=1;align=center;" vertex="1" parent="1">
          <mxGeometry x="60" y="320" width="60" height="50" as="geometry" />
        </mxCell>
        <mxCell id="B4BlVv6zM83etMITKogT-18" value="&lt;font style=&quot;color: rgb(0 , 0 , 0) ; font-family: &amp;#34;helvetica&amp;#34; ; font-style: normal ; font-weight: 400 ; letter-spacing: normal ; text-indent: 0px ; text-transform: none ; word-spacing: 0px ; font-size: 18px&quot;&gt;&lt;b&gt;P&lt;sub&gt;3&lt;/sub&gt;&lt;/b&gt;&lt;/font&gt;&lt;br style=&quot;color: rgb(0 , 0 , 0) ; font-family: &amp;#34;helvetica&amp;#34; ; font-size: 12px ; font-style: normal ; font-weight: 400 ; letter-spacing: normal ; text-indent: 0px ; text-transform: none ; word-spacing: 0px&quot;&gt;&lt;span style=&quot;color: rgb(0 , 0 , 0) ; font-family: &amp;#34;helvetica&amp;#34; ; font-size: 12px ; font-style: normal ; font-weight: 400 ; letter-spacing: normal ; text-indent: 0px ; text-transform: none ; word-spacing: 0px ; display: inline ; float: none&quot;&gt;Cost c&lt;/span&gt;&lt;sub style=&quot;color: rgb(0 , 0 , 0) ; font-family: &amp;#34;helvetica&amp;#34; ; font-style: normal ; font-weight: 400 ; letter-spacing: normal ; text-indent: 0px ; text-transform: none ; word-spacing: 0px&quot;&gt;3&lt;/sub&gt;" style="text;whiteSpace=wrap;html=1;align=center;" vertex="1" parent="1">
          <mxGeometry x="200" y="320" width="60" height="50" as="geometry" />
        </mxCell>
        <mxCell id="B4BlVv6zM83etMITKogT-19" value="&lt;font style=&quot;color: rgb(0 , 0 , 0) ; font-family: &amp;#34;helvetica&amp;#34; ; font-style: normal ; font-weight: 400 ; letter-spacing: normal ; text-indent: 0px ; text-transform: none ; word-spacing: 0px ; font-size: 18px&quot;&gt;&lt;b&gt;P&lt;sub&gt;4&lt;/sub&gt;&lt;/b&gt;&lt;/font&gt;&lt;br style=&quot;color: rgb(0 , 0 , 0) ; font-family: &amp;#34;helvetica&amp;#34; ; font-size: 12px ; font-style: normal ; font-weight: 400 ; letter-spacing: normal ; text-indent: 0px ; text-transform: none ; word-spacing: 0px&quot;&gt;&lt;span style=&quot;color: rgb(0 , 0 , 0) ; font-family: &amp;#34;helvetica&amp;#34; ; font-size: 12px ; font-style: normal ; font-weight: 400 ; letter-spacing: normal ; text-indent: 0px ; text-transform: none ; word-spacing: 0px ; display: inline ; float: none&quot;&gt;Cost c&lt;/span&gt;&lt;sub style=&quot;color: rgb(0 , 0 , 0) ; font-family: &amp;#34;helvetica&amp;#34; ; font-style: normal ; font-weight: 400 ; letter-spacing: normal ; text-indent: 0px ; text-transform: none ; word-spacing: 0px&quot;&gt;4&lt;/sub&gt;" style="text;whiteSpace=wrap;html=1;align=center;" vertex="1" parent="1">
          <mxGeometry x="60" y="50" width="60" height="50" as="geometry" />
        </mxCell>
      </root>
    </mxGraphModel>
  </diagram>
</mxfile>
